<svg width="152" height="61" xmlns="http://www.w3.org/2000/svg">
    <g fill="none" fill-rule="evenodd">
        <text font-family="ProximaNova-Bold, Proxima Nova" font-size="50" font-weight="bold" fill="#4A4A4A"
              transform="translate(.2678)">
            <tspan x="45.7322" y="50">ITB</tspan>
        </text>
        <path d="M131.0774 35c.8757-.3575 1.4668-.7557 1.7733-1.1945.3065-.4388.5036-1.227.5911-2.3646a27.8582 27.8582 0 012.4302-3.2421c.8903-1.0239 1.8317-1.9583 2.8242-2.8034.6713.91 1.3427 1.9827 2.0141 3.2178.6714 1.235 1.1968 2.5352 1.5763 3.9003l2.058 1.6577a1.384 1.384 0 01.5254-.3657 6.4816 6.4816 0 01.6568-.2194c.146-.455.3867-.8776.7224-1.2676.3357-.39.5911-.8938.7663-1.5114.0292-.6825-.0949-1.3488-.3722-1.9989-.2773-.65-.489-1.3814-.6349-2.194-.2627-.13-.4816-.3087-.6568-.5362a4.585 4.585 0 01-.4597-.7314c-.1314-.26-.27-.5119-.416-.7557a3.1234 3.1234 0 00-.5254-.6581 21.3186 21.3186 0 01-.3503-.8289c-.146-.26-.3065-.5525-.4817-.8775-.1751-.325-.4232-.6826-.7443-1.0726 1.2844-1.2351 2.3936-2.2265 3.3277-2.974.9341-.7476 1.7077-1.3327 2.3207-1.7552.7297-.4876 1.3427-.845 1.839-1.0726.0875-.4225.248-.7963.4816-1.1214.2335-.325.4525-.715.6568-1.17-.2335-.26-.416-.5689-.5473-.9264-.1314-.3575-.27-.707-.416-1.0482-.146-.3413-.3357-.6744-.5692-.9995-.2335-.325-.5546-.585-.9633-.78-.7006.325-1.4303.7475-2.1893 1.2676-.759.52-1.496 1.0726-2.2112 1.6576a133.576 133.576 0 00-2.1017 1.7552c-.686.585-1.3209 1.0726-1.9047 1.4626-.1751-.2925-.4306-.6988-.7663-1.2189-.3356-.52-.7224-1.0563-1.1603-1.6088-.4378-.5526-.8903-1.0564-1.3573-1.5114-.467-.455-.8904-.7476-1.2698-.8776 0-.1625-.0657-.252-.197-.2682-.1314-.0162-.168-.1543-.1095-.4144-.2044.0975-.4014.1138-.5911.0488a7.4603 7.4603 0 01-.613-.2438 7.325 7.325 0 00-.7006-.2681c-.2481-.0813-.5182-.1057-.81-.0732.0583.1625.0656.3332.0218.512a3.8281 3.8281 0 01-.1751.5362c-.073.1788-.146.3657-.219.5607-.073.195-.1094.4063-.1094.6338.146.52.1678.9995.0657 1.4383-.1022.4388-.1825.7882-.2409 1.0482.2628.26.489.6094.6787 1.0482.1898.4388.2554.837.197 1.1945.0584.065.1533.0731.2847.0244.1313-.0488.2116-.0244.2408.0731a19.1976 19.1976 0 001.3574 1.9746c.4962.6338.8319 1.2757 1.007 1.9258a2.8706 2.8706 0 01-.5692.78 12.344 12.344 0 01-.7006.6338c-.2335.195-.4524.39-.6567.585-.2044.1951-.3503.4226-.4379.6826l-1.3136 1.4627c-.467.52-.8976 1.0807-1.2917 1.682a12.0331 12.0331 0 00-1.007 1.877c-.2774.6501-.4306 1.3164-.4598 1.999-.2919.9426-.2554 1.8933.1095 2.8521.3649.9588.956 1.7795 1.7733 2.4621z"
              fill="#B3CC57" fill-rule="nonzero"/>
        <path d="M3 25.6472c11.813-6.2499 20.0022-9.1119 24.5678-8.586 6.8484.7889-12.778 10.4324-18.5176 9.919-3.8264-.3423-5.843-.7866-6.0502-1.333zM27.308 27.3108c-6.1764 1.1212-19.1803 3.5899-23.6744 8.5347-4.4942 4.9448 16.2607.3717 20.1249-3.6534 3.8642-4.025 9.726-6.0025 3.5495-4.8813zM1.6112 48.906c3.2935-2.3215 12.5967-9.444 25.7282-9.8842 13.1315-.4402-4.9715 5.9156-11.6074 8.1818-6.6358 2.2662-17.4142 4.0239-14.1208 1.7024z"
              fill="#EF746F"/>
    </g>
</svg>
